<?xml version="1.0" encoding="UTF-8" standalone="no"?>
<!DOCTYPE svg PUBLIC "-//W3C//DTD SVG 20010904//EN"
        "http://www.w3.org/TR/2001/REC-SVG-20010904/DTD/svg10.dtd">

<svg width="1.66667in" height="1.66667in"
     viewBox="0 0 120 120">
    <path id="close"
          fill="red" stroke="black" stroke-width="5"
          d="M 90.00,10.00
           C 90.00,10.00 60.00,40.00 60.00,40.00
             60.00,40.00 30.00,10.00 30.00,10.00
             30.00,10.00 10.00,30.00 10.00,30.00
             10.00,30.00 40.00,60.00 40.00,60.00
             40.00,60.00 10.00,90.00 10.00,90.00
             10.00,90.00 30.00,110.00 30.00,110.00
             30.00,110.00 60.00,80.00 60.00,80.00
             60.00,80.00 90.00,110.00 90.00,110.00
             90.00,110.00 110.00,90.00 110.00,90.00
             110.00,90.00 80.00,60.00 80.00,60.00
             80.00,60.00 110.00,30.00 110.00,30.00
             110.00,30.00 90.00,10.00 90.00,10.00 Z"/>
</svg>
