<?xml version="1.0" encoding="UTF-8" standalone="no"?>
<!DOCTYPE svg PUBLIC "-//W3C//DTD SVG 20010904//EN"
        "http://www.w3.org/TR/2001/REC-SVG-20010904/DTD/svg10.dtd">

<svg width="1.66667in" height="1.66667in"
     viewBox="0 0 120 120">
    <path id="back"
          fill="#ffffff" stroke="black" stroke-width="5"
          d="M 60.00,10.00
           C 30.00,10.00 10.00,30.00 10.00,60.00
             10.00,90.00 30.00,110.00 60.00,110.00
             90.00,110.00 110.00,90.00 110.00,60.00
             110.00,30.00 90.00,10.00 60.00,10.00 Z"/>
    <path id="Path copy #1"
          fill="#000000" stroke="black" stroke-width="1"
          d="M 79.75,69.25
           C 79.75,69.25 80.00,28.88 80.00,28.88
             80.00,28.88 84.75,37.00 84.75,37.00
             84.75,37.00 84.75,76.75 84.75,76.75
             84.75,82.38 78.12,85.25 74.75,85.38
             71.50,85.38 64.75,82.75 64.75,77.12
             64.75,68.50 75.12,61.38 79.75,69.25 Z"/>
    <path id="Path copy"
          fill="#000000" stroke="black" stroke-width="1"
          d="M 45.00,76.50
           C 45.00,76.50 45.25,36.12 45.25,36.12
             45.25,36.12 84.82,27.91 84.82,27.91
             84.82,27.91 84.76,37.27 84.76,37.27
             84.76,37.27 50.00,44.25 50.00,44.25
             50.00,44.25 50.00,84.00 50.00,84.00
             50.00,89.62 43.38,92.50 40.00,92.62
             36.75,92.62 30.00,90.00 30.00,84.38
             30.00,75.75 40.38,68.62 45.00,76.50 Z"/>
</svg>
