<?xml version="1.0" encoding="UTF-8" standalone="no"?>
<!DOCTYPE svg PUBLIC "-//W3C//DTD SVG 20010904//EN"
        "http://www.w3.org/TR/2001/REC-SVG-20010904/DTD/svg10.dtd">

<svg width="1.66667in" height="1.66667in"
     viewBox="0 0 120 120">
    <path id="Path"
          fill="#ffffff" stroke="gray" stroke-width="5"
          d="M 75.12,80.00
           C 75.12,80.00 95.12,80.00 95.12,80.00
             95.12,80.00 95.12,40.00 95.12,40.00
             95.12,40.00 75.12,20.00 75.12,20.00
             75.12,20.00 45.12,20.00 45.12,20.00
             45.12,20.00 45.12,40.00 45.12,40.00
             45.12,40.00 55.00,40.00 55.00,40.00
             55.00,40.00 75.00,60.00 75.00,60.00
             75.00,60.00 75.12,80.00 75.12,80.00 Z
           M 75.12,20.00
           C 75.12,20.00 75.00,40.03 75.00,40.03
             75.00,40.03 95.12,40.00 95.12,40.00"/>
    <path id="Unnamed"
          fill="#ffffff" stroke="#3ebeff" stroke-width="5"
          d="M 25.12,40.00
           C 25.12,40.00 55.12,40.00 55.12,40.00
             55.12,40.00 75.12,60.00 75.12,60.00
             75.12,60.00 75.12,100.00 75.12,100.00
             75.12,100.00 25.12,100.00 25.12,100.00
             25.12,100.00 25.12,40.00 25.12,40.00 Z
           M 55.12,40.00
           C 55.12,40.00 55.12,60.00 55.12,60.00
             55.12,60.00 75.12,60.00 75.12,60.00"/>
</svg>
