<?xml version="1.0" encoding="UTF-8" standalone="no"?>
<!DOCTYPE svg PUBLIC "-//W3C//DTD SVG 20010904//EN"
        "http://www.w3.org/TR/2001/REC-SVG-20010904/DTD/svg10.dtd">

<svg width="1.66667in" height="1.66667in"
     viewBox="0 0 120 120">
    <path id="blades"
          fill="#000000" stroke="black" stroke-width="5"
          d="M 70.00,70.00
           C 70.00,70.00 100.00,20.00 100.00,20.00
             100.00,20.00 60.00,60.00 60.00,60.00
             60.00,60.00 20.00,20.00 20.00,20.00
             20.00,20.00 50.00,70.00 50.00,70.00
             50.00,70.00 37.27,82.36 37.27,82.36
             37.27,82.36 60.00,72.18 60.00,72.18
             60.00,72.18 82.73,82.91 82.73,82.91
             82.73,82.91 70.00,70.00 70.00,70.00 Z"/>
    <path id="ears"
          fill="none" stroke="#e349c4" stroke-width="8"
          d="M 90.00,80.00
           C 103.43,80.17 103.24,100.16 90.00,100.00
             76.67,100.00 76.67,80.00 90.00,80.00 Z
           M 30.00,80.00
           C 16.67,80.00 16.67,100.00 30.00,100.00
             43.33,100.00 43.33,80.00 30.00,80.00 Z"/>
</svg>
