<?xml version="1.0" encoding="UTF-8" standalone="no"?>
<!DOCTYPE svg PUBLIC "-//W3C//DTD SVG 20010904//EN"
        "http://www.w3.org/TR/2001/REC-SVG-20010904/DTD/svg10.dtd">

<svg width="1.66667in" height="1.66667in"
     viewBox="0 0 120 120">
    <path id="Bottom"
          fill="#ffcc00" stroke="black" stroke-width="5"
          d="M 70.00,79.82
           C 70.00,79.82 60.00,70.00 60.00,70.00
             60.00,70.00 49.82,80.00 49.82,80.00
             49.82,80.00 30.00,66.66 30.00,66.66
             30.00,66.66 30.00,90.00 30.00,90.00
             30.00,90.00 60.00,110.00 60.00,110.00
             60.00,110.00 90.00,90.00 90.00,90.00
             90.00,90.00 90.00,66.67 90.00,66.67
             90.00,66.67 70.00,79.82 70.00,79.82 Z"/>
    <path id="Top"
          fill="#ffcc00" stroke="black" stroke-width="5"
          d="M 70.00,10.09
           C 70.00,10.09 60.00,30.18 60.00,30.18
             60.00,30.18 50.00,10.00 50.00,10.00
             50.00,10.00 20.00,30.00 20.00,30.00
             20.00,30.00 30.00,50.00 30.00,50.00
             30.00,50.00 20.00,60.00 20.00,60.00
             20.00,60.00 50.00,80.00 50.00,80.00
             50.00,80.00 60.00,70.00 60.00,70.00
             60.00,70.00 70.00,80.00 70.00,80.00
             70.00,80.00 100.00,60.00 100.00,60.00
             100.00,60.00 90.00,50.00 90.00,50.00
             90.00,50.00 100.00,30.00 100.00,30.00
             100.00,30.00 70.00,10.09 70.00,10.09 Z"/>
    <path id="Center"
          fill="#000000" fill-opacity="0.6" stroke="black" stroke-width="5"
          d="M 60.00,30.00
           C 60.00,30.00 30.00,50.00 30.00,50.00
             30.00,50.00 60.00,70.00 60.00,70.00
             60.00,70.00 90.00,50.00 90.00,50.00
             90.00,50.00 60.00,30.00 60.00,30.00 Z"/>
    <path id="Ball"
          fill="#ff0000" stroke="black" stroke-width="5"
          d="M 60.00,70.00
           C 60.00,70.00 60.00,110.00 60.00,110.00M 10.00,89.82
           C 10.00,99.82 20.00,109.82 30.00,109.82
             40.00,109.82 50.00,99.82 50.00,89.82
             50.00,79.82 40.00,69.82 30.00,69.82
             20.00,69.82 10.00,79.82 10.00,89.82 Z"/>
    <path id="cone"
          fill="#00a8ff" stroke="black" stroke-width="5"
          d="M 110.00,103.36
           C 110.00,111.97 70.00,111.97 70.00,103.36
             70.00,103.36 90.00,59.00 90.00,59.00
             90.00,59.00 110.00,103.36 110.00,103.36 Z"/>
</svg>
