<?xml version="1.0" encoding="UTF-8" standalone="no"?>
<!DOCTYPE svg PUBLIC "-//W3C//DTD SVG 20010904//EN"
        "http://www.w3.org/TR/2001/REC-SVG-20010904/DTD/svg10.dtd">

<svg width="1.66667in" height="1.66667in"
     viewBox="0 0 120 120">
    <path id="back"
          fill="#ffffff" stroke="black" stroke-width="5"
          d="M 20.00,10.00
           C 20.00,10.00 20.00,110.00 20.00,110.00
             20.00,110.00 100.00,110.00 100.00,110.00
             100.00,110.00 100.00,40.00 100.00,40.00
             100.00,40.00 70.00,10.00 70.00,10.00
             70.00,10.00 20.00,10.00 20.00,10.00 Z
           M 30.00,90.00
           C 30.00,90.00 90.00,90.00 90.00,90.00M 30.00,70.00
           C 30.00,70.00 90.00,70.00 90.00,70.00"/>
    <path id="front"
          fill="none" stroke="black" stroke-width="5"
          d="M 70.00,10.00
           C 70.00,10.00 70.00,40.00 70.00,40.00
             70.00,40.00 100.00,40.00 100.00,40.00"/>
</svg>
