<?xml version="1.0" encoding="UTF-8" standalone="no"?>
<!DOCTYPE svg PUBLIC "-//W3C//DTD SVG 20010904//EN"
              "http://www.w3.org/TR/2001/REC-SVG-20010904/DTD/svg10.dtd">

<svg xmlns="http://www.w3.org/2000/svg"
     width="1.66667in" height="1.66667in"
     viewBox="0 0 120 120">
  <path id="head"
        fill="#cf6100" stroke="black" stroke-width="5"
        d="M 60.00,20.00
           C 40.00,20.00 30.00,40.00 30.00,68.66
             45.12,57.06 74.88,57.19 90.00,68.59
             90.00,40.00 80.00,20.00 60.00,20.00 Z" />
  <path id="bottom"
        fill="#cf6100" stroke="black" stroke-width="5"
        d="M 60.00,110.00
           C 80.00,110.00 100.00,100.00 100.00,84.91
             100.00,70.00 80.00,60.00 60.00,60.00
             40.00,60.00 20.00,70.00 20.00,84.91
             20.00,100.00 40.00,110.00 60.00,110.00 Z
           M 80.00,30.00
           C 90.00,20.00 110.00,20.00 110.00,40.00
             110.00,70.00 95.60,71.26 90.00,68.50
             90.00,58.50 88.69,40.50 80.00,30.00 Z
           M 40.00,30.00
           C 30.00,20.00 10.00,20.00 10.00,40.00
             10.00,70.00 24.62,73.11 30.00,68.44
             30.00,58.44 31.56,40.00 40.00,30.00 Z
           M 24.91,60.00" />
  <path id="ears"
        fill="#d2958a" stroke="black" stroke-width="1"
        d="M 90.00,30.00
           C 90.00,30.00 93.45,60.00 93.45,60.00
             95.44,61.64 102.73,60.00 102.91,40.00
             102.73,30.00 93.74,26.93 90.00,30.00 Z
           M 30.00,30.00
           C 30.00,30.00 24.91,60.00 24.91,60.00
             22.02,60.45 16.91,60.00 16.36,40.00
             16.55,30.00 27.45,27.27 30.00,30.00 Z" />
  <path id="ears copy"
        fill="#000000" stroke="black" stroke-width="1"
        d="M 60.00,64.55
           C 56.38,64.69 60.00,70.00 50.00,70.00
             47.30,69.10 40.00,60.00 60.00,60.00
             80.00,60.00 72.81,68.84 70.00,70.00
             60.00,70.00 63.66,64.44 60.00,64.55 Z" />
  <path id="eyes"
        fill="#ffffff" stroke="black" stroke-width="1"
        d="M 80.00,63.38
           C 80.00,40.00 70.00,40.00 70.00,40.00
             70.00,40.00 60.00,40.00 60.00,50.00
             60.00,40.00 50.00,40.00 50.00,40.00
             50.00,40.00 40.00,40.00 40.00,63.38
             54.19,58.44 68.38,59.19 80.00,63.38 Z" />
  <path id="Path"
        fill="#000000" stroke="black" stroke-width="1"
        d="M 50.00,46.75
           C 54.62,46.69 54.50,56.94 50.00,57.06
             46.06,57.25 45.94,46.88 50.00,46.75 Z
           M 70.00,46.75
           C 74.31,46.88 74.56,56.88 70.00,56.88
             65.50,56.88 65.75,46.88 70.00,46.75 Z
           M 53.56,15.62
           C 56.62,14.31 60.00,16.44 60.00,20.00
             60.00,16.50 61.19,10.25 65.06,11.75M 34.75,85.25
           C 44.38,96.00 75.52,96.08 85.00,84.88" />
</svg>
