<?xml version="1.0" encoding="UTF-8" standalone="no"?>
<svg
   xmlns:dc="http://purl.org/dc/elements/1.1/"
   xmlns:cc="http://creativecommons.org/ns#"
   xmlns:rdf="http://www.w3.org/1999/02/22-rdf-syntax-ns#"
   xmlns:svg="http://www.w3.org/2000/svg"
   xmlns="http://www.w3.org/2000/svg"
   xmlns:sodipodi="http://sodipodi.sourceforge.net/DTD/sodipodi-0.dtd"
   xmlns:inkscape="http://www.inkscape.org/namespaces/inkscape"
   width="1.66667in"
   height="1.66667in"
   viewBox="0 0 120 120"
   id="svg2"
   version="1.1"
   inkscape:version="0.91 r13725"
   sodipodi:docname="monkey.svg">
  <metadata
     id="metadata12">
    <rdf:RDF>
      <cc:Work
         rdf:about="">
        <dc:format>image/svg+xml</dc:format>
        <dc:type
           rdf:resource="http://purl.org/dc/dcmitype/StillImage" />
      </cc:Work>
    </rdf:RDF>
  </metadata>
  <defs
     id="defs10" />
  <sodipodi:namedview
     pagecolor="#ffffff"
     bordercolor="#666666"
     borderopacity="1"
     objecttolerance="10"
     gridtolerance="10"
     guidetolerance="10"
     inkscape:pageopacity="0"
     inkscape:pageshadow="2"
     inkscape:window-width="2560"
     inkscape:window-height="1416"
     id="namedview8"
     showgrid="false"
     inkscape:zoom="4.4500499"
     inkscape:cx="32.473719"
     inkscape:cy="104.98355"
     inkscape:window-x="0"
     inkscape:window-y="24"
     inkscape:window-maximized="1"
     inkscape:current-layer="svg2" />
  <path
     id="Unnamed"
     d="m 55.932506,59.640454 c 1.19,-7.24 10.423171,-5.19 9.573171,0 M 51.49455,71.045004 c 9.270615,1.437519 9.122869,1.574279 16.202716,0.179319 -4.494995,4.427948 -11.438628,4.157721 -16.202716,-0.179319 z"
     style="fill:#000000;stroke:#000000;stroke-width:4"
     inkscape:connector-curvature="0"
     sodipodi:nodetypes="ccccc" />
  <path
     id="face copy"
     d="m 40,45.64 c 0,-6.244249 10,-9.168289 10,0.18 0,7.45 -9.75,6.92 -10,-0.18 z m 30,0.33 c 0.231954,-8.315513 10.247338,-7.80783 10,0.18 -0.181055,5.847198 -10.216932,7.596975 -10,-0.18 z"
     style="fill:#000000;stroke:#000000;stroke-width:4"
     inkscape:connector-curvature="0"
     sodipodi:nodetypes="cscsss" />
  <path
     id="face"
     fill="none"
     stroke="black"
     stroke-width="4"
     d="M 36.55,60.00            C 20.00,30.00 58.18,10.00 60.00,40.00              62.18,10.00 100.00,30.00 82.91,60.00              79.27,70.00 74.19,75.69 70.00,80.00              65.69,83.75 54.56,83.69 50.00,80.00              46.62,76.69 40.00,70.00 36.55,60.00 Z" />
  <path
     id="Back"
     d="m 30,40 c 0,-20 10,-30 30,-30 20,0 30.539319,10.898865 30.539319,30.898865 10.000001,-10 13.887721,-5.011127 13.887721,4.988873 l -1.12409,9.022716 c -5.639998,5.28 -5.280452,4.010908 -12.04454,-0.303642 C 87.69841,64.606812 80,80 70,86.19 60,90 60,90 50,86.19 40,80 31.442044,64.427039 28.382044,54.427039 c -10,2.516821 -6.224769,1.438184 -11.494769,-2.921816 L 15.393188,44.629327 C 15.393188,34.629327 20,30 30,40 Z"
     inkscape:connector-curvature="0"
     style="fill:none;stroke:#000000;stroke-width:4"
     sodipodi:nodetypes="cscccccccccc" />
</svg>
