<?xml version="1.0" encoding="UTF-8" standalone="no"?>
<!DOCTYPE svg PUBLIC "-//W3C//DTD SVG 20010904//EN"
        "http://www.w3.org/TR/2001/REC-SVG-20010904/DTD/svg10.dtd">

<svg width="1.66667in" height="1.66667in"
     viewBox="0 0 120 120">
    <path id="Path"
          fill="#000000" stroke="black" stroke-width="1"
          d="M 60.00,64.50
           C 60.00,64.50 60.00,24.50 60.00,24.50
             60.00,24.50 90.00,24.50 90.00,24.50
             90.00,24.50 90.00,34.50 90.00,34.50
             90.00,34.50 70.00,34.50 70.00,34.50
             70.00,34.50 70.00,78.75 70.00,78.75
             70.00,87.12 64.00,94.00 54.88,94.50
             46.12,94.38 40.00,87.75 40.00,78.75
             40.00,67.38 52.62,60.00 60.00,64.50 Z"/>
    <path id="Unnamed"
          fill="none" stroke="black" stroke-width="5"
          d="M 10.00,10.00
           C 10.00,10.00 10.00,110.00 10.00,110.00
             10.00,110.00 110.00,110.00 110.00,110.00
             110.00,110.00 110.00,10.00 110.00,10.00
             110.00,10.00 10.00,10.00 10.00,10.00 Z"/>
</svg>
