<?xml version="1.0" encoding="UTF-8" standalone="no"?>
<!DOCTYPE svg PUBLIC "-//W3C//DTD SVG 20010904//EN"
              "http://www.w3.org/TR/2001/REC-SVG-20010904/DTD/svg10.dtd">

<svg xmlns="http://www.w3.org/2000/svg"
     width="1.66667in" height="1.66667in"
     viewBox="0 0 120 120">
  <path id="Path"
        fill="#000000" stroke="black" stroke-width="5"
        d="M 30.00,90.00
           C 30.00,90.00 50.00,60.00 50.00,60.00
             50.00,60.00 70.00,70.00 70.00,70.00
             70.00,70.00 80.00,30.00 80.00,30.00
             80.00,30.00 90.00,90.00 90.00,90.00
             90.00,90.00 30.00,90.00 30.00,90.00 Z
           M 40.00,30.00
           C 45.18,30.00 50.00,34.55 50.00,40.00
             50.00,45.64 45.03,50.00 40.00,50.00
             34.69,50.00 30.00,45.50 30.00,40.00
             30.00,34.88 35.03,30.00 40.00,30.00 Z" />
  <path id="Unnamed"
        fill="none" stroke="black" stroke-width="5"
        d="M 10.00,10.00
           C 10.00,10.00 10.00,110.00 10.00,110.00
             10.00,110.00 110.00,110.00 110.00,110.00
             110.00,110.00 110.00,10.00 110.00,10.00
             110.00,10.00 10.00,10.00 10.00,10.00 Z" />
</svg>
