<?xml version="1.0" encoding="UTF-8" standalone="no"?>
<!DOCTYPE svg PUBLIC "-//W3C//DTD SVG 20010904//EN"
              "http://www.w3.org/TR/2001/REC-SVG-20010904/DTD/svg10.dtd">

<svg xmlns="http://www.w3.org/2000/svg"
     width="1.66667in" height="1.66667in"
     viewBox="0 0 120 120">
  <path id="blades"
        fill="none" stroke="black" stroke-width="5"
        d="M 20.00,30.00
           C 20.00,30.00 100.00,30.00 100.00,30.00
             100.00,30.00 90.00,40.00 90.00,40.00
             90.00,40.00 90.00,90.00 90.00,90.00
             90.00,95.50 85.12,100.00 80.00,100.00
             80.00,100.00 40.00,100.00 40.00,100.00
             35.25,100.00 30.00,95.38 30.00,90.00
             30.00,90.00 30.00,40.00 30.00,40.00
             30.00,40.00 20.00,30.00 20.00,30.00 Z" />
  <path id="ears"
        fill="none" stroke="black" stroke-width="5"
        d="M 146.00,-10.91M 40.00,30.00
           C 40.00,30.00 50.00,20.00 50.00,20.00
             50.00,20.00 70.00,20.00 70.00,20.00
             70.00,20.00 80.00,30.00 80.00,30.00M 60.00,40.00
           C 60.00,40.00 60.00,90.00 60.00,90.00M 75.12,40.00
           C 75.12,40.00 75.25,90.00 75.25,90.00M 44.88,40.00
           C 44.88,40.00 44.75,90.00 44.75,90.00" />
</svg>
