<?xml version="1.0" encoding="UTF-8" standalone="no"?>
<!DOCTYPE svg PUBLIC "-//W3C//DTD SVG 20010904//EN"
              "http://www.w3.org/TR/2001/REC-SVG-20010904/DTD/svg10.dtd">

<svg xmlns="http://www.w3.org/2000/svg"
     width="1.66646in" height="1.66646in"
     viewBox="0 0 120 120">
  <path id="Front"
        fill="#000000" fill-opacity="0.5" stroke="black" stroke-width="3"
        d="M 10.00,80.00
           C 10.00,80.00 10.00,10.00 10.00,10.00
             10.00,10.00 110.00,10.00 110.00,10.00
             110.00,10.00 110.00,80.00 110.00,80.00
             110.00,80.00 10.00,80.00 10.00,80.00 Z
           M -62.36,-17.64" />
  <path id="Back"
        fill="#000000" fill-opacity="0.5" stroke="black" stroke-width="3"
        d="M 10.00,10.00
           C 10.00,10.00 10.00,100.00 10.00,100.00
             10.00,100.00 110.00,100.00 110.00,100.00
             110.00,100.00 110.00,10.00 110.00,10.00
             110.00,10.00 90.00,10.00 90.00,10.00
             90.00,10.00 90.00,80.00 90.00,80.00
             90.00,80.00 30.00,80.00 30.00,80.00
             30.00,80.00 30.00,10.00 30.00,10.00
             30.00,10.00 10.00,10.00 10.00,10.00 Z
           M 10.00,110.00
           C 10.00,110.00 110.00,110.00 110.00,110.00" />
</svg>
