<?xml version="1.0" encoding="UTF-8" standalone="no"?>
<!DOCTYPE svg PUBLIC "-//W3C//DTD SVG 20010904//EN"
        "http://www.w3.org/TR/2001/REC-SVG-20010904/DTD/svg10.dtd">

<svg width="1.66667in" height="1.66667in"
     viewBox="0 0 120 120">
    <path id="wall"
          fill="#ffffff" stroke="black" stroke-width="5"
          d="M 70.00,20.18
           C 70.00,20.18 20.00,20.00 20.00,20.00
             20.00,20.00 20.00,100.00 20.00,100.00
             20.00,100.00 90.00,100.00 90.00,100.00
             90.00,100.00 90.00,50.00 90.00,50.00"/>
    <path id="Unnamed"
          fill="none" stroke="black" stroke-width="5"
          d="M 29.82,60.36
           C 29.82,60.36 60.00,60.00 60.00,60.00M 30.00,40.00
           C 30.00,40.00 60.00,40.36 60.00,40.36"/>
    <path id="Path"
          fill="none" stroke="black" stroke-width="5"
          d="M 30.00,80.00
           C 30.00,80.00 80.00,80.00 80.00,80.00"/>
    <path id="arrow"
          fill="none" stroke="black" stroke-width="10"
          d="M 60.06,59.94
           C 60.06,59.94 99.63,20.36 99.63,20.36M 80.00,60.00
           C 80.00,60.00 60.00,60.00 60.00,60.00
             60.00,60.00 60.00,40.00 60.00,40.00"/>
</svg>
