<?xml version="1.0" encoding="UTF-8" standalone="no"?>
<!DOCTYPE svg PUBLIC "-//W3C//DTD SVG 20010904//EN"
        "http://www.w3.org/TR/2001/REC-SVG-20010904/DTD/svg10.dtd">

<svg width="1.66667in" height="1.66667in"
     viewBox="0 0 120 120">
    <path id="Path"
          fill="#f1970a" stroke="black" stroke-width="5"
          d="M 50.00,40.00
           C 50.00,40.00 80.00,40.00 80.00,40.00
             80.00,40.00 80.00,20.00 80.00,20.00
             80.00,20.00 20.00,20.00 20.00,20.00
             20.00,20.00 20.00,90.00 20.00,90.00
             20.00,90.00 50.00,90.00 50.00,90.00
             50.00,90.00 50.00,40.00 50.00,40.00 Z
           M 30.00,30.00
           C 30.00,30.00 70.00,30.00 70.00,30.00"/>
    <path id="Unnamed copy"
          fill="#ffffff" stroke="black" stroke-width="5"
          d="M 50.00,40.00
           C 50.00,40.00 80.00,40.00 80.00,40.00
             80.00,40.00 100.00,60.00 100.00,60.00
             100.00,60.00 100.00,100.00 100.00,100.00
             100.00,100.00 50.00,100.00 50.00,100.00
             50.00,100.00 50.00,40.00 50.00,40.00 Z"/>
    <path id="Unnamed"
          fill="none" stroke="black" stroke-width="5"
          d="M 80.00,40.00
           C 80.00,40.00 80.00,60.00 80.00,60.00
             80.00,60.00 100.00,60.00 100.00,60.00"/>
</svg>
