<?xml version="1.0" encoding="UTF-8" standalone="no"?>
<!DOCTYPE svg PUBLIC "-//W3C//DTD SVG 20010904//EN"
        "http://www.w3.org/TR/2001/REC-SVG-20010904/DTD/svg10.dtd">

<svg width="1.66667in" height="1.66667in"
     viewBox="0 0 120 120">
    <path id="Unnamed copy"
          fill="#ffffff" stroke="black" stroke-width="5"
          d="M 80.00,50.00
           C 80.00,50.00 80.00,100.00 80.00,100.00
             80.00,100.00 20.25,100.00 20.25,100.00
             20.25,100.00 20.00,20.00 20.00,20.00
             20.00,20.00 60.00,20.00 60.00,20.00
             60.00,20.00 75.04,35.00 75.04,35.00
             75.04,35.00 90.00,20.00 90.00,20.00
             90.00,20.00 100.00,30.00 100.00,30.00
             100.00,30.00 80.00,50.00 80.00,50.00 Z"/>
    <path id="Path"
          fill="none" stroke="black" stroke-width="5"
          d="M 60.00,20.00
           C 60.00,20.00 60.00,40.00 60.00,40.00
             60.00,40.00 70.00,40.00 70.00,40.00
             70.00,40.00 75.03,34.97 75.03,34.97"/>
    <path id="pencil"
          fill="#00ff18" stroke="black" stroke-width="5"
          d="M 40.00,70.00
           C 40.00,70.00 35.18,84.73 35.18,84.73
             35.18,84.73 50.00,80.00 50.00,80.00
             50.00,80.00 100.00,30.00 100.00,30.00
             100.00,30.00 90.00,20.00 90.00,20.00
             90.00,20.00 40.00,70.00 40.00,70.00 Z"/>
</svg>
