<?xml version="1.0" encoding="UTF-8" standalone="no"?>
<!DOCTYPE svg PUBLIC "-//W3C//DTD SVG 20010904//EN"
              "http://www.w3.org/TR/2001/REC-SVG-20010904/DTD/svg10.dtd">

<svg xmlns="http://www.w3.org/2000/svg"
     width="1.66667in" height="1.66667in"
     viewBox="0 0 120 120">
  <path id="Path"
        fill="none" stroke="black" stroke-width="5"
        d="M 79.55,40.00
           C 79.55,40.00 79.55,60.00 79.55,60.00
             79.55,60.00 99.55,60.00 99.55,60.00M 80.00,40.00
           C 80.00,40.00 80.00,20.00 80.00,20.00
             80.00,20.00 20.00,20.00 20.00,20.00
             20.00,20.00 20.00,90.00 20.00,90.00
             20.00,90.00 50.00,90.00 50.00,90.00M 100.00,60.00" />
  <path id="Unnamed"
        fill="none" stroke="black" stroke-width="5"
        d="M 49.62,40.00
           C 49.62,40.00 79.62,40.00 79.62,40.00
             79.62,40.00 99.62,60.00 99.62,60.00
             99.62,60.00 99.62,100.00 99.62,100.00
             99.62,100.00 49.62,100.00 49.62,100.00
             49.62,100.00 49.62,40.00 49.62,40.00 Z
           M 30.00,30.00
           C 30.00,30.00 70.00,30.00 70.00,30.00" />
</svg>
