<?xml version="1.0" encoding="UTF-8" standalone="no"?>
<!DOCTYPE svg PUBLIC "-//W3C//DTD SVG 20010904//EN"
              "http://www.w3.org/TR/2001/REC-SVG-20010904/DTD/svg10.dtd">

<svg xmlns="http://www.w3.org/2000/svg"
     width="1.66667in" height="1.66667in"
     viewBox="0 0 120 120">
  <path id="Top"
        fill="none" stroke="black" stroke-width="3"
        d="M 70.00,10.09
           C 70.00,10.09 60.00,30.18 60.00,30.18
             60.00,30.18 50.00,10.00 50.00,10.00
             50.00,10.00 20.00,30.00 20.00,30.00
             20.00,30.00 30.00,50.00 30.00,50.00
             30.00,50.00 20.00,60.00 20.00,60.00
             20.00,60.00 50.00,80.00 50.00,80.00
             50.00,80.00 60.00,70.00 60.00,70.00
             60.00,70.00 70.00,80.00 70.00,80.00
             70.00,80.00 100.00,60.00 100.00,60.00
             100.00,60.00 90.00,50.00 90.00,50.00
             90.00,50.00 100.00,30.00 100.00,30.00
             100.00,30.00 70.00,10.09 70.00,10.09 Z" />
  <path id="Center"
        fill="#000000" fill-opacity="0.6" stroke="black" stroke-width="3"
        d="M 60.00,30.00
           C 60.00,30.00 30.00,50.00 30.00,50.00
             30.00,50.00 60.00,70.00 60.00,70.00
             60.00,70.00 90.00,50.00 90.00,50.00
             90.00,50.00 60.00,30.00 60.00,30.00 Z" />
  <path id="Unnamed"
        fill="none" stroke="black" stroke-width="3"
        d="M 60.00,70.00
           C 60.00,70.00 60.00,110.00 60.00,110.00" />
  <path id="line"
        fill="none" stroke="black" stroke-width="3"
        d="" />
  <path id="Bottom"
        fill="none" stroke="black" stroke-width="3"
        d="M 30.00,66.66
           C 30.00,66.66 30.00,90.00 30.00,90.00
             30.00,90.00 60.00,110.00 60.00,110.00
             60.00,110.00 90.00,90.00 90.00,90.00
             90.00,90.00 90.00,66.67 90.00,66.67" />
</svg>
