<?xml version="1.0" encoding="UTF-8" standalone="no"?>
<!DOCTYPE svg PUBLIC "-//W3C//DTD SVG 20010904//EN"
              "http://www.w3.org/TR/2001/REC-SVG-20010904/DTD/svg10.dtd">

<svg xmlns="http://www.w3.org/2000/svg"
     width="1.66667in" height="1.66667in"
     viewBox="0 0 120 120">
  <path id="Unnamed #1"
        fill="none" stroke="black" stroke-width="3"
        d="M 18.73,70.00
           C 19.64,60.00 23.09,50.00 33.09,50.00
             32.77,50.00 103.09,49.82 103.09,49.82
             113.09,49.82 110.18,60.00 109.09,70.00
             109.09,70.00 106.00,90.00 106.00,90.00
             104.00,100.00 100.19,110.13 90.00,109.82
             90.00,109.82 20.00,110.00 20.00,110.00
             10.00,110.00 15.09,100.00 16.00,90.00
             16.00,90.00 18.73,70.00 18.73,70.00 Z" />
  <path id="Unnamed"
        fill="none" stroke="black" stroke-width="3"
        d="M 100.00,49.82
           C 99.91,39.93 100.00,29.82 90.00,29.82
             90.00,29.82 49.68,30.00 50.00,30.00
             50.00,20.00 50.00,10.00 40.00,10.00
             40.00,10.00 20.00,10.00 20.00,10.00
             10.00,10.00 10.00,20.00 10.00,30.00
             10.00,30.00 10.00,90.00 10.00,90.00
             10.54,100.11 10.00,110.00 20.00,110.00
             20.00,110.00 90.00,109.82 90.00,109.82" />
</svg>
