<?xml version="1.0" encoding="UTF-8" standalone="no"?>
<!DOCTYPE svg PUBLIC "-//W3C//DTD SVG 20010904//EN"
              "http://www.w3.org/TR/2001/REC-SVG-20010904/DTD/svg10.dtd">

<svg xmlns="http://www.w3.org/2000/svg"
     width="1.66667in" height="1.66667in"
     viewBox="0 0 120 120">
  <path id="back"
        fill="#82dfec" stroke="black" stroke-width="5"
        d="M 10.00,10.00
           C 10.00,10.00 10.00,110.00 10.00,110.00
             10.00,110.00 110.00,110.00 110.00,110.00
             110.00,110.00 110.00,10.00 110.00,10.00
             110.00,10.00 10.00,10.00 10.00,10.00 Z" />
  <path id="ground"
        fill="#8e5f3f" stroke="black" stroke-width="5"
        d="M 10.00,110.00
           C 10.00,110.00 110.00,110.00 110.00,110.00
             110.00,110.00 110.00,90.00 110.00,90.00
             110.00,90.00 10.00,90.00 10.00,90.00
             10.00,90.00 10.00,110.00 10.00,110.00 Z" />
  <path id="montain"
        fill="#299d29" stroke="black" stroke-width="5"
        d="M 30.00,100.00
           C 30.00,100.00 50.00,70.00 50.00,70.00
             50.00,70.00 70.00,80.00 70.00,80.00
             70.00,80.00 80.00,40.00 80.00,40.00
             80.00,40.00 90.00,100.00 90.00,100.00
             90.00,100.00 30.00,100.00 30.00,100.00 Z" />
  <path id="sun"
        fill="#ffcc00" stroke="black" stroke-width="5"
        d="M 40.00,20.00
           C 50.00,20.00 60.00,30.00 60.00,40.00
             60.00,50.00 50.00,60.00 40.00,60.00
             30.00,60.00 20.00,50.00 20.00,40.00
             20.00,30.00 30.00,20.00 40.00,20.00 Z" />
</svg>
