<?xml version="1.0" encoding="UTF-8" standalone="no"?>
<!DOCTYPE svg PUBLIC "-//W3C//DTD SVG 20010904//EN"
              "http://www.w3.org/TR/2001/REC-SVG-20010904/DTD/svg10.dtd">

<svg xmlns="http://www.w3.org/2000/svg"
     width="1.66667in" height="1.66667in"
     viewBox="0 0 120 120">
  <path id="topleft"
        fill="#ff0000" stroke="black" stroke-width="5"
        d="M 60.00,10.00
           C 30.00,10.00 10.00,30.00 10.00,60.00
             10.00,60.00 60.00,60.00 60.00,60.00
             60.00,60.00 60.00,10.00 60.00,10.00 Z" />
  <path id="topright"
        fill="#ffea00" stroke="black" stroke-width="5"
        d="M 60.00,10.00
           C 60.00,10.00 60.00,60.00 60.00,60.00
             60.00,60.00 110.00,60.00 110.00,60.00
             110.00,30.00 90.00,10.00 60.00,10.00 Z" />
  <path id="bottomleft"
        fill="#0000ff" stroke="black" stroke-width="5"
        d="M 60.00,60.00
           C 60.00,60.00 60.00,110.00 60.00,110.00
             30.00,110.00 10.00,90.00 10.00,60.00
             10.00,60.00 60.00,60.00 60.00,60.00 Z" />
  <path id="bottomright"
        fill="#00ff00" stroke="black" stroke-width="5"
        d="M 60.00,60.00
           C 60.00,60.00 60.00,110.00 60.00,110.00
             90.00,110.00 110.00,90.00 110.00,60.00
             110.00,60.00 60.00,60.00 60.00,60.00 Z" />
</svg>
